<mxfile host="app.diagrams.net" modified="2023-06-27T17:42:06.669Z" agent="Mozilla/5.0 (Windows NT 10.0; Win64; x64) AppleWebKit/537.36 (KHTML, like Gecko) Chrome/114.0.0.0 Safari/537.36" etag="1jFWPlqYYPRE9PVOAKTu" version="21.1.1" type="device">
  <diagram name="Page-1" id="mPF0FrCR0-2Tlv8hIKeB">
    <mxGraphModel dx="1434" dy="768" grid="1" gridSize="10" guides="1" tooltips="1" connect="1" arrows="1" fold="1" page="1" pageScale="1" pageWidth="850" pageHeight="1100" math="0" shadow="0">
      <root>
        <mxCell id="0" />
        <mxCell id="1" parent="0" />
        <mxCell id="_tF8wD0ud76K5K6tAd5h-7" style="edgeStyle=orthogonalEdgeStyle;rounded=0;orthogonalLoop=1;jettySize=auto;html=1;exitX=0.75;exitY=1;exitDx=0;exitDy=0;entryX=0;entryY=0.5;entryDx=0;entryDy=0;" edge="1" parent="1" source="_tF8wD0ud76K5K6tAd5h-1" target="_tF8wD0ud76K5K6tAd5h-2">
          <mxGeometry relative="1" as="geometry">
            <Array as="points">
              <mxPoint x="260" y="270" />
            </Array>
          </mxGeometry>
        </mxCell>
        <mxCell id="_tF8wD0ud76K5K6tAd5h-10" style="edgeStyle=orthogonalEdgeStyle;rounded=0;orthogonalLoop=1;jettySize=auto;html=1;exitX=0;exitY=0.75;exitDx=0;exitDy=0;entryX=0.25;entryY=0;entryDx=0;entryDy=0;" edge="1" parent="1" source="_tF8wD0ud76K5K6tAd5h-1" target="_tF8wD0ud76K5K6tAd5h-9">
          <mxGeometry relative="1" as="geometry" />
        </mxCell>
        <mxCell id="_tF8wD0ud76K5K6tAd5h-1" value="Landing Page&lt;br&gt;&amp;nbsp;------------------&lt;br&gt;&lt;br&gt;+ entry/&quot;Welcome&quot;&lt;br&gt;&lt;br&gt;" style="whiteSpace=wrap;html=1;align=left;" vertex="1" parent="1">
          <mxGeometry x="170" y="40" width="120" height="120" as="geometry" />
        </mxCell>
        <mxCell id="_tF8wD0ud76K5K6tAd5h-13" style="edgeStyle=orthogonalEdgeStyle;rounded=0;orthogonalLoop=1;jettySize=auto;html=1;exitX=0.5;exitY=0;exitDx=0;exitDy=0;entryX=0;entryY=0.5;entryDx=0;entryDy=0;" edge="1" parent="1" source="_tF8wD0ud76K5K6tAd5h-2" target="_tF8wD0ud76K5K6tAd5h-12">
          <mxGeometry relative="1" as="geometry" />
        </mxCell>
        <mxCell id="_tF8wD0ud76K5K6tAd5h-2" value="Login&lt;br&gt;&amp;nbsp;------------------&lt;br&gt;&lt;br&gt;+entry/&quot;Username&quot;&lt;br&gt;&lt;br&gt;&lt;div style=&quot;&quot;&gt;&lt;span style=&quot;background-color: initial;&quot;&gt;+entry/&quot;Password&quot;&lt;/span&gt;&lt;/div&gt;" style="whiteSpace=wrap;html=1;align=left;" vertex="1" parent="1">
          <mxGeometry x="270" y="210" width="110" height="120" as="geometry" />
        </mxCell>
        <mxCell id="_tF8wD0ud76K5K6tAd5h-3" style="edgeStyle=orthogonalEdgeStyle;rounded=0;orthogonalLoop=1;jettySize=auto;html=1;exitX=0.25;exitY=1;exitDx=0;exitDy=0;entryX=0.75;entryY=1;entryDx=0;entryDy=0;" edge="1" parent="1" source="_tF8wD0ud76K5K6tAd5h-2" target="_tF8wD0ud76K5K6tAd5h-2">
          <mxGeometry relative="1" as="geometry">
            <Array as="points">
              <mxPoint x="298" y="370" />
              <mxPoint x="353" y="370" />
            </Array>
          </mxGeometry>
        </mxCell>
        <mxCell id="_tF8wD0ud76K5K6tAd5h-4" value="invalid entry field" style="text;html=1;align=center;verticalAlign=middle;resizable=0;points=[];autosize=1;strokeColor=none;fillColor=none;" vertex="1" parent="1">
          <mxGeometry x="275" y="375" width="110" height="30" as="geometry" />
        </mxCell>
        <mxCell id="_tF8wD0ud76K5K6tAd5h-9" value="Read Program&lt;br&gt;&amp;nbsp;------------------&lt;br&gt;&lt;br&gt;&lt;br&gt;&lt;br&gt;" style="whiteSpace=wrap;html=1;align=left;" vertex="1" parent="1">
          <mxGeometry x="50" y="210" width="110" height="120" as="geometry" />
        </mxCell>
        <mxCell id="_tF8wD0ud76K5K6tAd5h-17" style="edgeStyle=orthogonalEdgeStyle;rounded=0;orthogonalLoop=1;jettySize=auto;html=1;exitX=1;exitY=0.5;exitDx=0;exitDy=0;entryX=0;entryY=0.5;entryDx=0;entryDy=0;" edge="1" parent="1" source="_tF8wD0ud76K5K6tAd5h-12" target="_tF8wD0ud76K5K6tAd5h-16">
          <mxGeometry relative="1" as="geometry" />
        </mxCell>
        <mxCell id="_tF8wD0ud76K5K6tAd5h-12" value="User&lt;br&gt;&amp;nbsp;------------------&lt;br&gt;&lt;div style=&quot;&quot;&gt;&lt;span style=&quot;background-color: initial;&quot;&gt;+ do/&quot;CreateProgram&quot;&lt;br&gt;&lt;br&gt;&lt;/span&gt;&lt;/div&gt;&lt;div style=&quot;&quot;&gt;+ do/&quot;EditProgram&quot;&lt;br&gt;&lt;br&gt;&lt;/div&gt;&lt;div style=&quot;&quot;&gt;+ do/&quot;DeleteProgram&quot;&lt;span style=&quot;background-color: initial;&quot;&gt;&lt;br&gt;&lt;br&gt;&lt;/span&gt;&lt;/div&gt;" style="whiteSpace=wrap;html=1;align=left;" vertex="1" parent="1">
          <mxGeometry x="380" y="40" width="130" height="120" as="geometry" />
        </mxCell>
        <mxCell id="_tF8wD0ud76K5K6tAd5h-14" value="valid" style="text;html=1;align=center;verticalAlign=middle;resizable=0;points=[];autosize=1;strokeColor=none;fillColor=none;" vertex="1" parent="1">
          <mxGeometry x="305" y="75" width="50" height="30" as="geometry" />
        </mxCell>
        <mxCell id="_tF8wD0ud76K5K6tAd5h-20" style="edgeStyle=orthogonalEdgeStyle;rounded=0;orthogonalLoop=1;jettySize=auto;html=1;exitX=0.75;exitY=1;exitDx=0;exitDy=0;entryX=0.75;entryY=0;entryDx=0;entryDy=0;" edge="1" parent="1" source="_tF8wD0ud76K5K6tAd5h-16" target="_tF8wD0ud76K5K6tAd5h-18">
          <mxGeometry relative="1" as="geometry" />
        </mxCell>
        <mxCell id="_tF8wD0ud76K5K6tAd5h-16" value="CreateProgram&lt;br&gt;&amp;nbsp;------------------&lt;br&gt;&lt;div style=&quot;&quot;&gt;&lt;span style=&quot;background-color: initial;&quot;&gt;+ do/&quot;AddExercise&quot;&lt;br&gt;&lt;br&gt;&lt;/span&gt;&lt;/div&gt;&lt;div style=&quot;&quot;&gt;&lt;br&gt;&lt;br&gt;&lt;/div&gt;&lt;div style=&quot;&quot;&gt;&lt;span style=&quot;background-color: initial;&quot;&gt;&lt;br&gt;&lt;br&gt;&lt;/span&gt;&lt;/div&gt;" style="whiteSpace=wrap;html=1;align=left;" vertex="1" parent="1">
          <mxGeometry x="590" y="40" width="130" height="120" as="geometry" />
        </mxCell>
        <mxCell id="_tF8wD0ud76K5K6tAd5h-23" style="edgeStyle=orthogonalEdgeStyle;rounded=0;orthogonalLoop=1;jettySize=auto;html=1;exitX=0.5;exitY=1;exitDx=0;exitDy=0;entryX=1;entryY=0.5;entryDx=0;entryDy=0;" edge="1" parent="1" source="_tF8wD0ud76K5K6tAd5h-18" target="_tF8wD0ud76K5K6tAd5h-22">
          <mxGeometry relative="1" as="geometry" />
        </mxCell>
        <mxCell id="_tF8wD0ud76K5K6tAd5h-18" value="AddExercise&lt;br&gt;&amp;nbsp;------------------&lt;br&gt;&lt;div style=&quot;&quot;&gt;&lt;span style=&quot;background-color: initial;&quot;&gt;+ entry/&quot;enter name&quot;&lt;br&gt;&lt;br&gt;&lt;/span&gt;&lt;/div&gt;&lt;div style=&quot;&quot;&gt;+ entry/&quot;enter sets&quot;&lt;br&gt;&lt;br&gt;&lt;/div&gt;&lt;div style=&quot;&quot;&gt;&lt;span style=&quot;background-color: initial;&quot;&gt;+ entry/&quot;enter reps&quot;&lt;br&gt;&lt;br&gt;&lt;/span&gt;&lt;/div&gt;" style="whiteSpace=wrap;html=1;align=left;" vertex="1" parent="1">
          <mxGeometry x="590" y="240" width="130" height="120" as="geometry" />
        </mxCell>
        <mxCell id="_tF8wD0ud76K5K6tAd5h-25" style="edgeStyle=orthogonalEdgeStyle;rounded=0;orthogonalLoop=1;jettySize=auto;html=1;exitX=0.25;exitY=0;exitDx=0;exitDy=0;entryX=0.5;entryY=1;entryDx=0;entryDy=0;" edge="1" parent="1" source="_tF8wD0ud76K5K6tAd5h-22" target="_tF8wD0ud76K5K6tAd5h-12">
          <mxGeometry relative="1" as="geometry" />
        </mxCell>
        <mxCell id="_tF8wD0ud76K5K6tAd5h-22" value="SaveProgram()" style="whiteSpace=wrap;html=1;align=center;" vertex="1" parent="1">
          <mxGeometry x="485" y="470" width="130" height="120" as="geometry" />
        </mxCell>
        <mxCell id="_tF8wD0ud76K5K6tAd5h-24" value="add another exercise" style="text;html=1;align=center;verticalAlign=middle;resizable=0;points=[];autosize=1;strokeColor=none;fillColor=none;" vertex="1" parent="1">
          <mxGeometry x="490" y="200" width="140" height="30" as="geometry" />
        </mxCell>
        <mxCell id="_tF8wD0ud76K5K6tAd5h-26" style="edgeStyle=orthogonalEdgeStyle;rounded=0;orthogonalLoop=1;jettySize=auto;html=1;exitX=0.25;exitY=0;exitDx=0;exitDy=0;entryX=0.5;entryY=0;entryDx=0;entryDy=0;" edge="1" parent="1" source="_tF8wD0ud76K5K6tAd5h-18" target="_tF8wD0ud76K5K6tAd5h-18">
          <mxGeometry relative="1" as="geometry">
            <Array as="points">
              <mxPoint x="623" y="200" />
              <mxPoint x="655" y="200" />
            </Array>
          </mxGeometry>
        </mxCell>
        <mxCell id="_tF8wD0ud76K5K6tAd5h-27" value="Done" style="text;html=1;align=center;verticalAlign=middle;resizable=0;points=[];autosize=1;strokeColor=none;fillColor=none;" vertex="1" parent="1">
          <mxGeometry x="650" y="445" width="50" height="30" as="geometry" />
        </mxCell>
        <mxCell id="_tF8wD0ud76K5K6tAd5h-28" value="Store and Publish Program" style="text;html=1;align=center;verticalAlign=middle;resizable=0;points=[];autosize=1;strokeColor=none;fillColor=none;" vertex="1" parent="1">
          <mxGeometry x="355" y="440" width="170" height="30" as="geometry" />
        </mxCell>
      </root>
    </mxGraphModel>
  </diagram>
</mxfile>
